<svg id="archive-svgrepo-com-2" xmlns="http://www.w3.org/2000/svg" width="23" height="23" viewBox="0 0 23 23">
  <g id="Group_10" data-name="Group 10">
    <g id="Group_9" data-name="Group 9">
      <path id="Path_16" data-name="Path 16" d="M20.121,0H2.879A2.883,2.883,0,0,0,0,2.879v7.663H23V2.879A2.883,2.883,0,0,0,20.121,0ZM12.458,7.667H10.542A2.879,2.879,0,0,1,7.667,4.792a.958.958,0,0,1,1.917,0,.959.959,0,0,0,.958.958h1.917a.959.959,0,0,0,.958-.958.958.958,0,0,1,1.917,0A2.878,2.878,0,0,1,12.458,7.667Z" fill="#00032b"/>
      <path id="Path_17" data-name="Path 17" d="M0,285a2.883,2.883,0,0,0,2.879,2.879H20.121A2.883,2.883,0,0,0,23,285v-7.663H0Zm8.625-5.746a.957.957,0,0,1,.958.958.959.959,0,0,0,.958.958h1.917a.959.959,0,0,0,.958-.958.958.958,0,0,1,1.917,0,2.879,2.879,0,0,1-2.875,2.875H10.542a2.879,2.879,0,0,1-2.875-2.875A.958.958,0,0,1,8.625,279.25Z" transform="translate(0 -264.875)" fill="#00032b"/>
    </g>
  </g>
</svg>
