<svg xmlns="http://www.w3.org/2000/svg" width="20.273" height="26.133" viewBox="0 0 20.273 26.133">
  <g id="bell-svgrepo-com" transform="translate(-51.493)">
    <g id="Group_68" data-name="Group 68" transform="translate(51.493)">
      <g id="Group_67" data-name="Group 67">
        <path id="Path_32" data-name="Path 32" d="M175.208,404.514c0,.007,0,.014,0,.02a3.1,3.1,0,1,0,6.2,0c0-.007,0-.014,0-.02Z" transform="translate(-168.169 -381.5)" fill="#00032b"/>
        <path id="Path_33" data-name="Path 33" d="M71.523,19.141l-2.789-4.1V9.934a7.106,7.106,0,0,0-5.711-6.967V1.393a1.393,1.393,0,0,0-2.786,0V2.967a7.106,7.106,0,0,0-5.711,6.967v5.111l-2.789,4.1a1.409,1.409,0,0,0,1.164,2.2H70.358a1.409,1.409,0,0,0,1.165-2.2Z" transform="translate(-51.493)" fill="#00032b"/>
      </g>
    </g>
  </g>
</svg>
