<svg xmlns="http://www.w3.org/2000/svg" width="25.731" height="27.018" viewBox="0 0 25.731 27.018">
  <g id="copy-add-svgrepo-com" transform="translate(-3 -2)">
    <path id="Path_1" data-name="Path 1" d="M4.93,7.358l0-2.731A2.9,2.9,0,0,0,3,7.358V20.873a6.111,6.111,0,0,0,6.111,6.111h6.515a8.382,8.382,0,0,1-1.388-1.93H9.111A4.181,4.181,0,0,1,4.93,20.873Z" transform="translate(0 0.753)" fill="#00032b"/>
    <path id="Path_2" data-name="Path 2" d="M22.869,13.8a8.369,8.369,0,0,0-9.889,10.712H8.395A2.9,2.9,0,0,1,5.5,21.62V4.895A2.9,2.9,0,0,1,8.395,2H19.974a2.9,2.9,0,0,1,2.895,2.895Z" transform="translate(0.716)" fill="#00032b"/>
    <path id="Path_3" data-name="Path 3" d="M19.076,12A7.076,7.076,0,1,1,12,19.076,7.076,7.076,0,0,1,19.076,12Zm.645,10.94V19.719h3.211a.643.643,0,0,0,0-1.287H19.72V15.215a.643.643,0,1,0-1.287,0v3.217H15.211a.643.643,0,0,0,0,1.287h3.223V22.94a.643.643,0,1,0,1.287,0Z" transform="translate(2.579 2.866)" fill="#00032b"/>
  </g>
</svg>
